<svg width="23" height="29" viewBox="0 0 23 29" fill="none" xmlns="http://www.w3.org/2000/svg">
<path d="M19.2089 15.4068C19.2484 19.7953 22.9591 21.2559 23 21.2746C22.9686 21.3773 22.4073 23.3558 21.0453 25.3991C19.868 27.1657 18.6459 28.9257 16.7212 28.9626C14.83 28.9981 14.2218 27.8109 12.0593 27.8109C9.89749 27.8109 9.22198 28.9257 7.43146 28.9981C5.57341 29.0704 4.1585 27.0875 2.97141 25.3276C0.545857 21.7272 -1.30787 15.1536 1.18112 10.7163C2.41755 8.51273 4.62756 7.11752 7.02606 7.08157C8.85046 7.04585 10.5725 8.34162 11.6878 8.34162C12.8023 8.34162 14.895 6.78324 17.095 7.012C18.0161 7.05145 20.6013 7.3939 22.2613 9.8888C22.1278 9.974 19.1768 11.7378 19.2089 15.4068ZM15.6544 4.63032C16.6408 3.40458 17.3047 1.69774 17.1237 0C15.7017 0.0585909 13.9824 0.972703 12.9626 2.19798C12.0486 3.28273 11.2483 5.01945 11.464 6.68357C13.049 6.80962 14.6679 5.85676 15.6544 4.63032Z" fill="black"/>
</svg>
