<svg width="35" height="25" viewBox="0 0 35 25" fill="none" xmlns="http://www.w3.org/2000/svg">
<path d="M32.153 0H2.44972C1.88703 0 1.34737 0.219493 0.949484 0.610194C0.551595 1.00089 0.328064 1.5308 0.328064 2.08333V22.9167C0.328064 23.4692 0.551595 23.9991 0.949484 24.3898C1.34737 24.7805 1.88703 25 2.44972 25H32.153C32.7157 25 33.2553 24.7805 33.6532 24.3898C34.0511 23.9991 34.2746 23.4692 34.2746 22.9167V2.08333C34.2746 1.5308 34.0511 1.00089 33.6532 0.610194C33.2553 0.219493 32.7157 0 32.153 0ZM30.5193 22.9167H4.2107L11.6365 15.375L10.1089 13.9271L2.44972 21.7083V3.66667L15.6358 16.5521C16.0334 16.9401 16.5711 17.1579 17.1316 17.1579C17.6921 17.1579 18.2299 16.9401 18.6274 16.5521L32.153 3.34375V21.5729L24.3453 13.9062L22.8495 15.375L30.5193 22.9167ZM3.83941 2.08333H30.4344L17.1316 15.0729L3.83941 2.08333Z" fill="black"/>
</svg>
